<svg xmlns="http://www.w3.org/2000/svg" width="105.538" height="105.537" viewBox="0 0 105.538 105.537">
  <g id="Group_3380" data-name="Group 3380" transform="translate(0)">
    <g id="Group_3015" data-name="Group 3015" transform="translate(0 0)">
      <g id="Group_2563" data-name="Group 2563" transform="translate(0)">
        <path id="Path_7877" data-name="Path 7877" d="M-474.861,232.835a52.871,52.871,0,0,0,52.769-52.768A52.871,52.871,0,0,0-474.861,127.3a52.87,52.87,0,0,0-52.769,52.769A52.871,52.871,0,0,0-474.861,232.835Z" transform="translate(527.63 -127.298)" fill="#f7aa06" opacity="0.1"/>
      </g>
      <g id="money_4_" data-name="money (4)" transform="translate(22.218 29.629)">
        <path id="Path_10612" data-name="Path 10612" d="M247.2,386a1.2,1.2,0,1,0,1.2,1.2A1.2,1.2,0,0,0,247.2,386Z" transform="translate(-216.566 -345.318)" fill="#f49600"/>
        <path id="Path_10613" data-name="Path 10613" d="M56.127,47.839A29.73,29.73,0,0,0,45.348,46a29.73,29.73,0,0,0-10.779,1.839,10.62,10.62,0,0,0-3.938,2.518,10.62,10.62,0,0,0-3.938-2.518A29.728,29.728,0,0,0,15.914,46,29.73,29.73,0,0,0,5.135,47.839C1.823,49.173,0,51.069,0,53.179V81.9c0,2.11,1.823,4.006,5.135,5.34a29.1,29.1,0,0,0,9.941,1.829v.01c0,4.093,6.687,7.179,15.555,7.179s15.555-3.086,15.555-7.179v-.01a29.1,29.1,0,0,0,9.941-1.829c3.311-1.334,5.135-3.23,5.135-5.34V53.179C61.262,51.069,59.438,49.173,56.127,47.839Zm2.742,26.877c0,1.021-1.393,2.217-3.636,3.12a27.049,27.049,0,0,1-9.047,1.654V74.716s0-.007,0-.01a29.1,29.1,0,0,0,9.942-1.829,13.029,13.029,0,0,0,2.742-1.465v3.3ZM29.434,60.358c0,1.021-1.393,2.217-3.636,3.12a27.705,27.705,0,0,1-9.885,1.666,27.705,27.705,0,0,1-9.885-1.666c-2.243-.9-3.636-2.1-3.636-3.12v-3.3a13.029,13.029,0,0,0,2.742,1.465,29.73,29.73,0,0,0,10.779,1.839,29.73,29.73,0,0,0,10.779-1.839,13.029,13.029,0,0,0,2.742-1.465ZM5.135,65.7a29.73,29.73,0,0,0,10.779,1.839A29.73,29.73,0,0,0,26.693,65.7a13.029,13.029,0,0,0,2.742-1.465v3.325a29.1,29.1,0,0,0-8.465,1.458,10.3,10.3,0,0,0-5.084,3.306,27.687,27.687,0,0,1-9.857-1.665c-2.243-.9-3.636-2.1-3.636-3.12v-3.3A13.029,13.029,0,0,0,5.135,65.7ZM2.393,71.412a13.028,13.028,0,0,0,2.742,1.465,29.1,29.1,0,0,0,9.942,1.829s0,.007,0,.01v4.774a27.048,27.048,0,0,1-9.047-1.654c-2.243-.9-3.636-2.1-3.636-3.12Zm15.2,2.716c.887-2.064,6-4.2,13.035-4.2s12.148,2.135,13.034,4.2a1.48,1.48,0,0,1,.128.59c0,1.052-1.3,2.221-3.469,3.126a26.042,26.042,0,0,1-9.692,1.66,26.041,26.041,0,0,1-9.692-1.66c-2.172-.905-3.469-2.074-3.469-3.126A1.478,1.478,0,0,1,17.6,74.129Zm41.273-6.591c0,1.021-1.393,2.217-3.636,3.12a27.685,27.685,0,0,1-9.857,1.665,10.3,10.3,0,0,0-5.084-3.306,29.092,29.092,0,0,0-8.465-1.458V64.233A13.03,13.03,0,0,0,34.569,65.7a29.731,29.731,0,0,0,10.779,1.839A29.73,29.73,0,0,0,56.127,65.7a13.028,13.028,0,0,0,2.742-1.465Zm0-7.179c0,1.021-1.393,2.217-3.636,3.12a27.705,27.705,0,0,1-9.885,1.666,27.705,27.705,0,0,1-9.885-1.666c-2.243-.9-3.636-2.1-3.636-3.12v-3.3a13.03,13.03,0,0,0,2.742,1.465,29.73,29.73,0,0,0,10.779,1.839,29.73,29.73,0,0,0,10.779-1.839,13.029,13.029,0,0,0,2.742-1.465Zm-23.406-10.3a27.706,27.706,0,0,1,9.885-1.666,27.706,27.706,0,0,1,9.885,1.666c2.243.9,3.636,2.1,3.636,3.12S57.475,55.4,55.233,56.3a27.705,27.705,0,0,1-9.885,1.666A27.705,27.705,0,0,1,35.463,56.3c-2.243-.9-3.636-2.1-3.636-3.12S33.22,50.962,35.463,50.059Zm-29.434,0a27.706,27.706,0,0,1,9.885-1.666A27.706,27.706,0,0,1,25.8,50.059c2.243.9,3.636,2.1,3.636,3.12S28.041,55.4,25.8,56.3a27.705,27.705,0,0,1-9.885,1.666A27.705,27.705,0,0,1,6.029,56.3c-2.243-.9-3.636-2.1-3.636-3.12S3.786,50.962,6.029,50.059Zm0,34.957c-2.243-.9-3.636-2.1-3.636-3.12v-3.3a13.027,13.027,0,0,0,2.742,1.465,29.1,29.1,0,0,0,9.941,1.829V86.67A27.048,27.048,0,0,1,6.029,85.016ZM40.323,92.2a26.041,26.041,0,0,1-9.692,1.66,26.041,26.041,0,0,1-9.692-1.66c-2.172-.905-3.469-2.074-3.469-3.126V85.84a10.54,10.54,0,0,0,.9.583,20.955,20.955,0,0,0,7.311,2.3,1.212,1.212,0,0,0,.175.013,1.2,1.2,0,0,0,.172-2.38c-5.561-.816-8.561-2.907-8.561-4.46V78.651c2.708,1.982,7.489,3.245,13.162,3.245s10.453-1.263,13.162-3.245V81.9c0,1.553-3,3.644-8.561,4.46a1.2,1.2,0,0,0,.172,2.381,1.211,1.211,0,0,0,.175-.013,20.955,20.955,0,0,0,7.311-2.3,10.566,10.566,0,0,0,.9-.583v3.234C43.792,90.127,42.5,91.3,40.323,92.2Zm14.91-7.185a27.048,27.048,0,0,1-9.047,1.654V81.885a29.1,29.1,0,0,0,9.941-1.829,13.029,13.029,0,0,0,2.742-1.465v3.3C58.869,82.917,57.475,84.113,55.233,85.016Z" transform="translate(0 -46)" fill="#f49600"/>
      </g>
    </g>
    <line id="Line_181" data-name="Line 181" x1="55.518" y2="90.642" transform="translate(27.203 9.044)" fill="none" stroke="#f49600" stroke-width="3"/>
  </g>
</svg>
