<svg id="Group_5325" data-name="Group 5325" xmlns="http://www.w3.org/2000/svg" width="105.355" height="105.355" viewBox="0 0 105.355 105.355">
  <path id="Path_1919" data-name="Path 1919" d="M-19.71,663.653a52.78,52.78,0,0,0,52.678-52.677A52.779,52.779,0,0,0-19.71,558.3a52.779,52.779,0,0,0-52.678,52.678A52.779,52.779,0,0,0-19.71,663.653Z" transform="translate(72.388 -558.298)" fill="#411d4b" opacity="0.1"/>
  <g id="Group_3040" data-name="Group 3040" transform="translate(20.341 28.162)">
    <path id="Path_10632" data-name="Path 10632" d="M57.9,45.332V11.795A2.8,2.8,0,0,0,55.1,9H34.605a2.8,2.8,0,0,0-2.795,2.795v8.384H6.658a2.8,2.8,0,0,0-2.795,2.795V49.99H2.932A.932.932,0,0,0,2,50.921v3.726a2.8,2.8,0,0,0,2.795,2.795H55.1A2.8,2.8,0,0,0,57.9,54.648V50.921a.932.932,0,0,0-.932-.932h-.932V47.959A2.8,2.8,0,0,0,57.9,45.332ZM33.674,11.795a.932.932,0,0,1,.932-.932H55.1a.932.932,0,0,1,.932.932v.932H33.674Zm0,2.795H56.032V36.948H33.674ZM5.726,22.974a.932.932,0,0,1,.932-.932H31.811v23.29a2.8,2.8,0,0,0,2.795,2.795H54.169V49.99H5.726ZM32.742,51.853v.932h-5.59v-.932Zm23.29,2.795a.932.932,0,0,1-.932.932H4.795a.932.932,0,0,1-.932-.932V51.853H25.29v1.863a.932.932,0,0,0,.932.932h7.453a.932.932,0,0,0,.932-.932V51.853H56.032ZM55.1,46.263H34.605a.932.932,0,0,1-.932-.932V38.811H56.032v6.521A.932.932,0,0,1,55.1,46.263Z" transform="translate(-2 -9)" fill="#411d4b"/>
    <path id="Path_10633" data-name="Path 10633" d="M28.495,45.042V32.932A.932.932,0,0,0,27.563,32H23.837a.932.932,0,0,0-.932.932V45.042h-.932V36.658a.932.932,0,0,0-.932-.932H17.316a.932.932,0,0,0-.932.932v8.384h-.932v-5.59a.932.932,0,0,0-.932-.932H10.795a.932.932,0,0,0-.932.932v5.59H8v1.863H30.358V45.042Zm-14.905,0H11.726V40.384H13.59Zm6.521,0H18.247V37.59h1.863Zm6.521,0H24.769V33.863h1.863Z" transform="translate(-2.411 -10.574)" fill="#411d4b"/>
    <path id="Path_10634" data-name="Path 10634" d="M47.795,42a2.795,2.795,0,1,0,2.795,2.795A2.795,2.795,0,0,0,47.795,42Zm0,3.726a.932.932,0,1,1,.932-.932A.932.932,0,0,1,47.795,45.726Z" transform="translate(-4.942 -11.258)" fill="#411d4b"/>
    <path id="Path_10637" data-name="Path 10637" d="M8.863,25.863h2.795V24H7.932A.932.932,0,0,0,7,24.932v3.726H8.863Z" transform="translate(-2.342 -10.026)" fill="#411d4b"/>
  </g>
</svg>
