<svg xmlns="http://www.w3.org/2000/svg" width="105.537" height="105.537" viewBox="0 0 105.537 105.537">
  <g id="Group_3381" data-name="Group 3381" transform="translate(0)">
    <path id="Path_1919" data-name="Path 1919" d="M-19.619,663.835a52.871,52.871,0,0,0,52.769-52.768A52.87,52.87,0,0,0-19.619,558.3a52.87,52.87,0,0,0-52.769,52.768A52.871,52.871,0,0,0-19.619,663.835Z" transform="translate(72.388 -558.298)" fill="#71c7d8" opacity="0.23"/>
    <g id="wallet_1_" data-name="wallet (1)" transform="translate(29.41 28.74)">
      <g id="Group_3027" data-name="Group 3027" transform="translate(17.934 45.325)">
        <g id="Group_3026" data-name="Group 3026">
          <path id="Path_10626" data-name="Path 10626" d="M196,491.96a.922.922,0,1,0,.27.652A.929.929,0,0,0,196,491.96Z" transform="translate(-194.43 -491.69)" fill="#71c7d8"/>
        </g>
      </g>
      <g id="Group_3029" data-name="Group 3029" transform="translate(4.427 28.858)">
        <g id="Group_3028" data-name="Group 3028">
          <path id="Path_10627" data-name="Path 10627" d="M48.922,313.165a.922.922,0,0,0-.922.922v8.563a.922.922,0,1,0,1.845,0v-8.563A.922.922,0,0,0,48.922,313.165Z" transform="translate(-48 -313.165)" fill="#71c7d8"/>
        </g>
      </g>
      <g id="Group_3031" data-name="Group 3031" transform="translate(4.427 25.015)">
        <g id="Group_3030" data-name="Group 3030">
          <path id="Path_10628" data-name="Path 10628" d="M49.575,271.769a.922.922,0,1,0,.27.652A.93.93,0,0,0,49.575,271.769Z" transform="translate(-48 -271.499)" fill="#71c7d8"/>
        </g>
      </g>
      <g id="Group_3033" data-name="Group 3033" transform="translate(0 0)">
        <g id="Group_3032" data-name="Group 3032">
          <path id="Path_10629" data-name="Path 10629" d="M47.227,25.248a4.526,4.526,0,0,0-3.69-4.442V14.825a4.617,4.617,0,0,0-4.612-4.612h-4.82L24.47.578a.923.923,0,0,0-1.3,0L21.022,2.722,18.877.578a.923.923,0,0,0-1.3,0L7.881,10.27a.919.919,0,0,0-.317-.057H4.612A4.617,4.617,0,0,0,0,14.825c0,.067,0,.134.005.2a.921.921,0,0,0-.005.1V42.866a4.617,4.617,0,0,0,4.612,4.612H14.974a.922.922,0,1,0,0-1.845H4.612a2.77,2.77,0,0,1-2.767-2.767V18.512a4.588,4.588,0,0,0,2.767.925l19.308.019H34.4c.03,0,.06,0,.09,0h.005A2.771,2.771,0,0,1,36.988,22.2v5.719H25.827a4.612,4.612,0,0,0,0,9.224H36.988v5.719a2.77,2.77,0,0,1-2.767,2.767h-11.5a.922.922,0,0,0,0,1.845h11.5a4.617,4.617,0,0,0,4.612-4.612V42.5h.092a4.617,4.617,0,0,0,4.612-4.612v-.831a4.62,4.62,0,0,0,3.69-4.519v-7.1c0-.019,0-.038,0-.057Q47.227,25.312,47.227,25.248ZM22.028,4.325l1.79-1.79,1.977,1.977a3.844,3.844,0,0,1-3.856.056A.922.922,0,0,0,22.028,4.325ZM1.845,14.825a2.77,2.77,0,0,1,2.767-2.767H6.093L2.121,16.03A2.751,2.751,0,0,1,1.845,14.825Zm2.767,2.767a2.751,2.751,0,0,1-1.179-.265L18.225,2.535l1.492,1.492L6.152,17.592Zm8.705,0a5.765,5.765,0,0,1,8.957,0Zm19.309,0H24.484a7.609,7.609,0,0,0-13.376,0H8.761l11.75-11.75a5.683,5.683,0,0,0,6.614,0l6.023,6.023A5.693,5.693,0,0,0,32.626,17.592Zm1.852-.443a3.843,3.843,0,0,1,0-3.953l1.977,1.977Zm1.719.889,2.214-2.214a.923.923,0,0,0,0-1.3L35.95,12.058h2.975a2.77,2.77,0,0,1,2.767,2.767v13.1H38.833V22.2A4.618,4.618,0,0,0,36.2,18.038Zm5.494,19.846a2.77,2.77,0,0,1-2.767,2.767h-.092V37.147h2.859Zm3.69-5.35A2.77,2.77,0,0,1,42.615,35.3H25.827a2.767,2.767,0,0,1,0-5.534h16.88a4.5,4.5,0,0,0,2.675-.879ZM43.537,27.79V22.706a2.674,2.674,0,0,1,0,5.085Z" transform="translate(0 -0.308)" fill="#71c7d8"/>
        </g>
      </g>
      <g id="Group_3035" data-name="Group 3035" transform="translate(25.089 31.304)">
        <g id="Group_3034" data-name="Group 3034">
          <path id="Path_10630" data-name="Path 10630" d="M273.575,339.96a.922.922,0,1,0,.27.652A.929.929,0,0,0,273.575,339.96Z" transform="translate(-272 -339.69)" fill="#71c7d8"/>
        </g>
      </g>
      <g id="Group_3037" data-name="Group 3037" transform="translate(23.902 11.333)">
        <g id="Group_3036" data-name="Group 3036" transform="translate(0 0)">
          <path id="Path_10631" data-name="Path 10631" d="M262.3,123.44a.923.923,0,0,0-1.3,0l-1.6,1.6a.922.922,0,1,0,1.3,1.3l1.6-1.6A.922.922,0,0,0,262.3,123.44Z" transform="translate(-259.125 -123.17)" fill="#71c7d8"/>
        </g>
      </g>
    </g>
  </g>
</svg>
