<svg id="Group_2740" data-name="Group 2740" xmlns="http://www.w3.org/2000/svg" width="100.865" height="100.867" viewBox="0 0 100.865 100.867">
  <path id="Path_1919" data-name="Path 1919" d="M-21.955,659.165a50.531,50.531,0,0,0,50.433-50.433A50.53,50.53,0,0,0-21.955,558.3a50.53,50.53,0,0,0-50.433,50.433A50.53,50.53,0,0,0-21.955,659.165Z" transform="translate(72.388 -558.298)" fill="#71c7d8" opacity="0.13"/>
  <g id="diamond" transform="translate(24.27 20.008)">
    <g id="Group_2679" data-name="Group 2679" transform="translate(0 13.995)">
      <g id="Group_2678" data-name="Group 2678" transform="translate(0)">
        <path id="Path_10525" data-name="Path 10525" d="M82.875,135.871l-.014-.031-6.939-13.879-.014-.025A1.74,1.74,0,0,0,74.37,121h-34.7a1.732,1.732,0,0,0-1.538.934l-.014.025L31.182,135.84l-.014.031a1.769,1.769,0,0,0-.169.735,1.743,1.743,0,0,0,.392,1.11l.014.017,0,0,.016.02L55.714,165.63l.01.01a1.735,1.735,0,0,0,2.6,0l.01-.01,24.288-27.874.016-.02,0,0a1.733,1.733,0,0,0,.238-1.861Zm-11.312-11.4-4.429,8.858-6.643-8.858Zm-7.6,10.409H50.082l6.939-9.253ZM53.552,124.472l-6.643,8.858-4.429-8.858Zm-13.879,2.144,4.132,8.265H35.54Zm-3.127,11.735h8.862l6.647,17.8Zm20.475,21.18-7.909-21.18H64.931Zm4.967-3.382,6.647-17.8H77.5Zm8.25-21.268,4.132-8.265,4.132,8.265Z" transform="translate(-30.999 -121.002)" fill="#71c7d8"/>
      </g>
    </g>
    <g id="Group_2681" data-name="Group 2681" transform="translate(24.288)">
      <g id="Group_2680" data-name="Group 2680">
        <path id="Path_10526" data-name="Path 10526" d="M242.734,0A1.735,1.735,0,0,0,241,1.735v5.2a1.735,1.735,0,1,0,3.47,0v-5.2A1.735,1.735,0,0,0,242.734,0Z" transform="translate(-240.999 0)" fill="#71c7d8"/>
      </g>
    </g>
    <g id="Group_2683" data-name="Group 2683" transform="translate(13.878 3.47)">
      <g id="Group_2682" data-name="Group 2682">
        <path id="Path_10527" data-name="Path 10527" d="M157.428,33.977l-3.47-3.47a1.735,1.735,0,0,0-2.453,2.453l3.47,3.47a1.735,1.735,0,0,0,2.453-2.453Z" transform="translate(-150.996 -29.999)" fill="#71c7d8"/>
      </g>
    </g>
    <g id="Group_2685" data-name="Group 2685" transform="translate(31.227 3.47)">
      <g id="Group_2684" data-name="Group 2684" transform="translate(0)">
        <path id="Path_10528" data-name="Path 10528" d="M307.431,30.509a1.735,1.735,0,0,0-2.453,0l-3.47,3.47a1.735,1.735,0,1,0,2.453,2.453l3.47-3.47A1.735,1.735,0,0,0,307.431,30.509Z" transform="translate(-300.999 -30)" fill="#71c7d8"/>
      </g>
    </g>
  </g>
</svg>
