<svg id="Group_2689" data-name="Group 2689" xmlns="http://www.w3.org/2000/svg" width="101.721" height="101.721" viewBox="0 0 101.721 101.721">
  <path id="Path_1919" data-name="Path 1919" d="M-21.527,660.019a50.959,50.959,0,0,0,50.861-50.86A50.959,50.959,0,0,0-21.527,558.3a50.959,50.959,0,0,0-50.861,50.86A50.959,50.959,0,0,0-21.527,660.019Z" transform="translate(72.388 -558.298)" fill="#71c7d8" opacity="0.13"/>
  <g id="Group_2686" data-name="Group 2686" transform="translate(29.351 22.653)">
    <g id="Group_2667" data-name="Group 2667" transform="translate(0)">
      <g id="Group_2666" data-name="Group 2666">
        <path id="Path_10519" data-name="Path 10519" d="M97.768,24.975a24.762,24.762,0,0,0-8.437-7.592,4.938,4.938,0,0,0-.979-7.6,8.354,8.354,0,0,0,2.338-5.8V2.7A2.7,2.7,0,0,0,86.443.5l-.668.472A6.03,6.03,0,0,1,78.577.6,2.694,2.694,0,0,0,74.2,2.7V3.822a8.622,8.622,0,0,0,2.391,5.927,4.939,4.939,0,0,0-1.033,7.634,24.759,24.759,0,0,0-8.437,7.592c-3.77,5.163-6.112,11.473-6.112,16.469,0,10.755,10.595,14.84,21.435,14.84,10.9,0,21.435-4.12,21.435-14.84C103.881,36.449,101.539,30.138,97.768,24.975ZM82,5.279a8.909,8.909,0,0,0,5.391-1.422V3.98a5.069,5.069,0,0,1-4.947,5.057A5.152,5.152,0,0,1,77.5,3.86,9.666,9.666,0,0,0,82,5.279Zm-2.853,7.034h6.6a1.67,1.67,0,0,1,1.649,1.671,1.651,1.651,0,0,1-1.649,1.649h-6.6A1.651,1.651,0,0,1,77.5,13.983,1.67,1.67,0,0,1,79.148,12.312Zm11.872,39.6a14.242,14.242,0,0,0,2.968-8.821,1.649,1.649,0,0,0-3.3,0c0,5.455-3.7,9.893-8.244,9.893S74.2,48.549,74.2,43.094a1.649,1.649,0,1,0-3.3,0,14.24,14.24,0,0,0,2.968,8.821c-4.8-1.313-9.563-4.2-9.563-10.469,0-4.267,2.15-9.968,5.478-14.524,2.18-2.984,6.722-7.991,12.66-7.991s10.48,5.006,12.66,7.991c3.328,4.556,5.478,10.257,5.478,14.524C100.583,47.717,95.821,50.6,91.02,51.914Z" transform="translate(-61.01 0)" fill="#71c7d8"/>
      </g>
    </g>
    <path id="Path_10521" data-name="Path 10521" d="M2088.477,426.613a3.045,3.045,0,0,1-1.327,1.117,3.336,3.336,0,0,1-1.35.276,3.432,3.432,0,0,1-1.51-.346,4.469,4.469,0,0,1,0-7.649,3.63,3.63,0,0,1,1.6-.365,3.493,3.493,0,0,1,1.257.229,2.855,2.855,0,0,1,1.2.834l2.2-1.8a5.22,5.22,0,0,0-3.4-1.827v-1.933h-2.859v2.066a6.821,6.821,0,0,0,0,13.214v1.617h2.859v-1.486a5.446,5.446,0,0,0,3.711-2.173Z" transform="translate(-2063.268 -389.571)" fill="#71c7d8"/>
  </g>
</svg>
