<svg xmlns="http://www.w3.org/2000/svg" width="126.116" height="126.115" viewBox="0 0 126.116 126.115">
  <g id="Group_1506" data-name="Group 1506" transform="translate(-42 -567.741)">
    <path id="Path_7893" data-name="Path 7893" d="M-464.572,253.413a63.18,63.18,0,0,0,63.058-63.057A63.179,63.179,0,0,0-464.572,127.3a63.179,63.179,0,0,0-63.058,63.057A63.179,63.179,0,0,0-464.572,253.413Z" transform="translate(569.631 440.443)" fill="#2e8240" opacity="0.1"/>
    <g id="surface1" transform="translate(71.678 593.742)">
      <path id="Path_9054" data-name="Path 9054" d="M781.23,1322.931a40.3,40.3,0,0,1-9.651,15.033,50.515,50.515,0,0,1-18.861,11.175,5.971,5.971,0,0,1-.777.211,5.491,5.491,0,0,1-1.054.111h-.068a5.8,5.8,0,0,1-1.125-.111,5.936,5.936,0,0,1-.775-.211,50.51,50.51,0,0,1-18.881-11.166,40.212,40.212,0,0,1-9.648-15.031c-3.9-10.577-3.677-22.23-3.5-31.594l0-.145c.037-.772.06-1.584.071-2.481a8.463,8.463,0,0,1,7.971-8.293c9.181-.513,16.287-3.508,22.355-9.423l.051-.048a5.117,5.117,0,0,1,6.946,0l.051.048c6.072,5.915,13.174,8.911,22.358,9.423a8.462,8.462,0,0,1,7.968,8.293c.014.9.037,1.715.074,2.481v.062C784.921,1300.646,785.14,1312.322,781.23,1322.931Z" transform="translate(-716.812 -1269.599)" fill="#00dd80"/>
      <path id="Path_9055" data-name="Path 9055" d="M759.121,1322.93a40.306,40.306,0,0,1-9.651,15.033,50.517,50.517,0,0,1-18.861,11.175,5.966,5.966,0,0,1-.777.211,5.511,5.511,0,0,1-1.054.111V1269.6a5.117,5.117,0,0,1,3.4,1.358l.051.048c6.072,5.915,13.174,8.911,22.358,9.423a8.462,8.462,0,0,1,7.968,8.293c.014.9.037,1.715.074,2.481v.062C762.811,1300.646,763.03,1312.322,759.121,1322.93Z" transform="translate(-694.703 -1269.598)" fill="#00aa63"/>
      <path id="Path_9056" data-name="Path 9056" d="M761.57,1296.537a19.929,19.929,0,0,1-19.832,19.9h-.071a19.9,19.9,0,0,1,0-39.81h.071A19.929,19.929,0,0,1,761.57,1296.537Z" transform="translate(-707.663 -1256.605)" fill="#fff"/>
      <path id="Path_9057" data-name="Path 9057" d="M748.609,1296.537a19.929,19.929,0,0,1-19.832,19.9v-39.81A19.929,19.929,0,0,1,748.609,1296.537Z" transform="translate(-694.703 -1256.605)" fill="#e1ebf0"/>
      <path id="Path_9058" data-name="Path 9058" d="M744.3,1285.209l-8.965,8.965-1.936,1.937a2.345,2.345,0,0,1-3.315,0l-4.166-4.166a2.343,2.343,0,0,1,3.315-3.312l2.509,2.509,9.244-9.244a2.343,2.343,0,0,1,3.315,3.312Z" transform="translate(-701.258 -1248.144)" fill="#b4d2d7"/>
      <path id="Path_9059" data-name="Path 9059" d="M737.742,1285.209l-8.965,8.965v-6.626l5.65-5.65a2.343,2.343,0,0,1,3.315,3.312Z" transform="translate(-694.703 -1248.144)" fill="#6fa5aa"/>
    </g>
  </g>
</svg>
